<svg xmlns="http://www.w3.org/2000/svg" width="170" height="64" viewBox="0 0 170 64"><g><g><g><path fill="#fff" d="M168.924 24.59C169.57 27.04 170 29.686 170 32.53c0 2.861-.331 5.507-1.06 7.938-.761 2.431-1.82 4.664-3.31 6.45-1.507 1.802-3.311 3.274-5.546 4.333-1.49.645-3.096 1.174-4.8 1.389 0 0-3.196.512-6.92-.215-1.275-.232-2.45-.53-3.527-1.059-.046 0-.07-.025-.097-.051-.03-.031-.063-.064-.134-.064 0-.1-.1-.1-.1-.1h-.082a12.686 12.686 0 0 1-1.821-1.058 17.656 17.656 0 0 1-3.642-3.274 21.394 21.394 0 0 1-3.311-6.45c-.745-2.431-1.076-5.077-1.076-7.938 0-2.745.331-5.49 1.06-7.905.76-2.547 1.82-4.647 3.31-6.566 1.49-1.786 3.311-3.274 5.463-4.332 1.987-.927 4.238-1.472 6.787-1.588 1.722-.1 3.212 0 4.37.198l1.573.331c0 .116.116.116.199.116.116.116.232.116.331.116.215 0 .447.132.447.132.63.165 1.374.496 1.987.827 2.152 1.042 3.973 2.43 5.462 4.35 1.49 1.918 2.55 4.117 3.311 6.548zm-24.98 2.399c-.331 1.687-.547 3.572-.663 5.391 0 1.902.116 3.804.53 5.49.43 1.704.96 3.176 1.722 4.433.745 1.29 1.705 2.232 2.78 2.976 1.077.728 2.335 1.059 3.726 1.059 1.407 0 2.665-.314 3.724-1.059 1.076-.744 2.037-1.686 2.781-2.943.745-1.29 1.275-2.762 1.706-4.465.314-1.687.53-3.589.53-5.49v-.63c0-1.901-.216-3.605-.663-5.291-.414-1.687-.96-3.06-1.705-4.333-.745-1.19-1.59-2.117-2.649-2.845-1.076-.744-2.251-1.041-3.642-1.041a6.495 6.495 0 0 0-3.724 1.157c-1.06.728-2.02 1.786-2.765 3.043-.745 1.273-1.275 2.878-1.705 4.531zm-23.375 8.335l8.774-4.531.198 1.819v23.88L122.821 64h-6.39L116 58.179l.43-.43 4.139-4.746z"/></g><g><path fill="#fff" d="M66.696 10.861L62.548 6.25 62 5.856 62.431 0l6.389.098 6.87 7.426v24.16l-.2 1.341-8.794-4.58zm58.874 6.494c1.493 1.898 2.555 4.073 3.318 6.478l.033-.066c.747 2.421 1.079 5.038 1.079 7.852 0 2.83-.332 5.447-1.062 7.851-.763 2.405-1.825 4.613-3.319 6.38a16 16 0 0 1-5.559 4.285c-1.493.638-3.103 1.162-4.812 1.374 0 0-3.202.507-6.936-.212-1.277-.23-2.456-.524-3.518-1.047-.06 0-.089-.031-.117-.06-.026-.028-.05-.055-.098-.055 0-.098-.116-.098-.116-.098h-.083a12.767 12.767 0 0 1-1.826-1.047c-1.393-.949-2.572-1.979-3.65-3.239a21.057 21.057 0 0 1-3.319-6.379c-.73-2.404-1.062-5.022-1.062-7.851 0-2.716.315-5.431 1.046-7.82.763-2.518 1.825-4.596 3.318-6.493 1.494-1.767 3.319-3.239 5.476-4.286 1.991-.916 4.248-1.455 6.803-1.57 1.726-.098 3.22 0 4.381.196l1.577.327c0 .115.116.115.199.115.132.114.232.114.332.114.215 0 .448.131.448.131.63.164 1.377.491 1.99.818 2.158 1.03 3.983 2.405 5.477 4.302zm-19.88 4.286c-.746 1.26-1.277 2.846-1.692 4.482l.017.016c-.426 1.647-.545 3.486-.66 5.264l-.004.069c0 1.88.1 3.762.53 5.43.432 1.685.963 3.14 1.71 4.384.747 1.276 1.71 2.208 2.771 2.944 1.079.72 2.356 1.047 3.767 1.047 1.377 0 2.671-.31 3.733-1.047 1.062-.736 2.025-1.668 2.755-2.911.747-1.276 1.294-2.732 1.709-4.417.332-1.668.564-3.55.564-5.43v-.622c0-1.881-.232-3.566-.663-5.234-.432-1.669-.963-3.027-1.71-4.286-.746-1.178-1.61-2.094-2.655-2.813-1.078-.737-2.256-1.031-3.65-1.031-1.41 0-2.672.409-3.734 1.145-1.078.72-2.04 1.767-2.787 3.01zM80.47 11.516h8.96V52h-8.96z"/></g><g><path fill="#fff" d="M89 6.17c0 2.302-1.848 4.17-4.126 4.17-2.277.1-4.125-1.752-4.125-4.17 0-2.302 1.848-4.17 4.125-4.17C87.152 2 89 3.868 89 6.17zM34.194 25.6l.033-.066c.743 2.468 1.073 5.137 1.073 8.006 0 2.885-.33 5.554-1.056 8.006-.76 2.452-1.816 4.704-3.301 6.505-1.485 1.818-3.3 3.303-5.529 4.37-1.485.65-3.086 1.184-4.785 1.401 0 0-3.185.517-6.899-.217-1.27-.233-2.442-.534-3.515-1.067-.099 0-.099 0-.198-.117 0-.1-.115-.1-.115-.1h-.083a12.63 12.63 0 0 1-1.815-1.068c-1.386-.967-2.558-2.018-3.63-3.302-1.486-1.835-2.542-3.953-3.301-6.505C.33 38.995 0 36.327 0 33.44c0-2.769.33-5.538 1.056-7.973.76-2.569 1.816-4.687 3.3-6.622 1.486-1.801 3.301-3.302 5.447-4.37 1.98-.934 4.224-1.484 6.766-1.601 1.716-.1 3.201 0 4.357.2l1.567.334c0 .116.116.116.199.116.132.117.23.117.33.117.214 0 .445.134.445.134.627.166 1.37.5 1.98.834 2.146 1.05 3.961 2.452 5.446 4.386 1.486 1.935 2.542 4.154 3.301 6.605zm40.333-.066c.644 2.468 1.056 5.137 1.056 8.006 0 2.885-.313 5.554-1.04 8.006-.759 2.452-1.815 4.704-3.3 6.505-1.502 1.818-3.3 3.303-5.529 4.37-1.485.65-3.086 1.184-4.785 1.401 0 0-3.185.517-6.899-.217-1.287-.233-2.442-.534-3.515-1.067-.046 0-.07-.025-.097-.052-.03-.031-.063-.065-.134-.065 0-.1-.099-.1-.099-.1s-1.27-.634-1.898-1.068a17.672 17.672 0 0 1-3.63-3.302c-1.386-1.835-2.542-4.053-3.3-6.505-.743-2.452-1.073-5.12-1.073-8.006 0-2.769.33-5.538 1.056-7.973.759-2.569 1.815-4.687 3.3-6.622 1.486-1.801 3.3-3.302 5.446-4.37 1.98-.934 4.225-1.484 6.766-1.601 1.7-.1 3.186 0 4.34.2l1.585.334c0 .116.099.116.198.116.116.117.231.117.33.117.215 0 .446.134.446.134.627.166 1.37.5 1.98.834 2.145 1.05 3.96 2.452 5.446 4.386 1.485 1.935 2.541 4.154 3.3 6.605zm-24.903 2.418c-.33 1.702-.545 3.603-.66 5.438 0 1.918.116 3.836.528 5.537.43 1.718.957 3.203 1.716 4.47.743 1.301 1.7 2.252 2.773 3.003 1.073.734 2.327 1.067 3.713 1.067 1.403 0 2.657-.317 3.713-1.067 1.073-.75 2.03-1.702 2.773-2.97.742-1.3 1.27-2.785 1.7-4.503.313-1.701.528-3.62.528-5.537v-.634c0-1.918-.215-3.636-.66-5.337-.43-1.702-.958-3.086-1.7-4.37-.743-1.201-1.585-2.135-2.64-2.87-1.074-.75-2.245-1.05-3.631-1.05-1.37 0-2.64.417-3.714 1.167-1.056.734-2.013 1.802-2.756 3.07-.742 1.284-1.27 2.902-1.7 4.57zm-40.217 0c-.413 1.702-.528 3.62-.528 5.538 0 1.901.115 3.853.544 5.57.446 1.802.94 3.287 1.6 4.337.744 1.301 1.7 2.252 2.757 3.003 1.073.734 2.343 1.067 3.746 1.067 1.37 0 2.657-.317 3.713-1.067s2.014-1.702 2.74-2.97c.742-1.3 1.287-2.785 1.7-4.503.33-1.701.528-3.62.528-5.537l.033-.634c0-1.918-.232-3.636-.66-5.338-.43-1.7-.958-3.085-1.7-4.37-.743-1.2-1.601-2.135-2.64-2.868-1.074-.751-2.245-1.051-3.631-1.051a6.31 6.31 0 0 0-3.714 1.167c-1.072.734-2.03 1.802-2.772 3.07-.743 1.284-1.27 2.902-1.683 4.57z"/></g></g></g></svg>