<svg xmlns="http://www.w3.org/2000/svg" width="82" height="31" viewBox="0 0 82 31"><g><g><g><path fill="#fff" d="M81.482 12.053c.31 1.177.518 2.45.518 3.817 0 1.375-.16 2.647-.51 3.816-.367 1.169-.877 2.242-1.594 3.1a7.773 7.773 0 0 1-2.67 2.084c-.718.31-1.49.564-2.312.668 0 0-1.538.246-3.331-.104-.614-.11-1.18-.254-1.698-.508-.022 0-.034-.012-.047-.025-.015-.015-.03-.031-.065-.031 0-.048-.048-.048-.048-.048h-.04a6.114 6.114 0 0 1-.876-.509 8.496 8.496 0 0 1-1.754-1.574 10.279 10.279 0 0 1-1.594-3.1c-.359-1.17-.518-2.442-.518-3.817 0-1.32.16-2.64.51-3.8.367-1.225.877-2.235 1.594-3.157a8.036 8.036 0 0 1 2.63-2.083c.957-.445 2.041-.708 3.268-.763.83-.048 1.547 0 2.105.095l.757.16c0 .055.056.055.095.055.056.055.112.055.16.055.103 0 .215.064.215.064.303.08.662.239.957.398 1.036.5 1.913 1.168 2.63 2.09.717.923 1.227 1.98 1.594 3.15zm-12.028 1.153c-.16.811-.263 1.718-.318 2.592 0 .915.055 1.829.255 2.64.207.819.462 1.526.829 2.13A4.38 4.38 0 0 0 71.559 22c.518.35 1.123.509 1.793.509.677 0 1.283-.151 1.793-.51.518-.357.98-.81 1.34-1.414.358-.62.613-1.328.82-2.147.152-.811.255-1.725.255-2.64v-.302c0-.914-.103-1.733-.318-2.544-.2-.811-.463-1.471-.821-2.083-.36-.573-.766-1.018-1.276-1.368-.518-.358-1.084-.5-1.753-.5a3.13 3.13 0 0 0-1.794.556c-.51.35-.972.858-1.33 1.463-.36.612-.614 1.383-.822 2.178zM58.2 17.213l4.224-2.178.096.874V27.39L59.284 31h-3.077L56 28.201l.207-.206 1.993-2.282z"/></g><g><path fill="#fff" d="M32.279 5.222l-2.013-2.218L30 2.815 30.21 0l3.1.047 3.333 3.57v11.616l-.096.645-4.268-2.202zm30.181 6.236l.017-.032c.362 1.164.523 2.423.523 3.775 0 1.36-.161 2.62-.515 3.775-.37 1.156-.886 2.218-1.61 3.067a7.756 7.756 0 0 1-2.699 2.06c-.724.307-1.505.559-2.335.661 0 0-1.554.244-3.366-.102-.62-.11-1.192-.252-1.707-.503-.03 0-.043-.015-.057-.03-.012-.013-.024-.026-.048-.026 0-.047-.056-.047-.056-.047h-.04a6.204 6.204 0 0 1-.886-.503 8.737 8.737 0 0 1-1.772-1.557 10.09 10.09 0 0 1-1.61-3.067c-.355-1.156-.516-2.414-.516-3.775 0-1.305.153-2.61.508-3.759.37-1.211.885-2.21 1.61-3.122a8.092 8.092 0 0 1 2.658-2.06c.966-.44 2.061-.7 3.301-.755.838-.047 1.562 0 2.126.094l.765.157c0 .055.057.055.097.055.064.055.113.055.16.055.106 0 .218.063.218.063.306.079.669.236.967.394 1.046.495 1.932 1.156 2.657 2.068.725.912 1.24 1.958 1.61 3.114zm-11.257-1.054c-.363.606-.62 1.369-.822 2.155l.009.008c-.207.792-.265 1.676-.32 2.53l-.003.033c0 .905.049 1.81.258 2.611.21.81.467 1.51.83 2.108.362.613.829 1.062 1.344 1.415.524.347 1.144.504 1.828.504.669 0 1.297-.15 1.812-.503a4.433 4.433 0 0 0 1.337-1.4c.362-.614.628-1.314.83-2.124.16-.802.273-1.706.273-2.61v-.3c0-.904-.113-1.714-.322-2.516-.21-.802-.467-1.455-.83-2.06a4.574 4.574 0 0 0-1.288-1.353c-.523-.354-1.095-.495-1.771-.495-.685 0-1.297.196-1.812.55-.524.346-.99.85-1.353 1.447zm-12.24-4.868h4.348V25h-4.348z"/></g><g><path fill="#fff" d="M43 3.005a2 2 0 0 1-1.993 2.004c-1.1.049-1.994-.842-1.994-2.004A2 2 0 0 1 41.007 1 2 2 0 0 1 43 3.005zM14.926 9.17c.718.93 1.228 1.997 1.595 3.176l.016-.032c.358 1.187.518 2.47.518 3.849 0 1.387-.16 2.67-.51 3.849-.367 1.179-.878 2.261-1.595 3.127a7.71 7.71 0 0 1-2.671 2.101c-.718.313-1.491.57-2.312.674 0 0-1.54.249-3.333-.104-.614-.113-1.18-.257-1.699-.513-.047 0-.047 0-.095-.057 0-.048-.056-.048-.056-.048h-.04a6.096 6.096 0 0 1-.877-.513 8.736 8.736 0 0 1-1.754-1.588c-.718-.882-1.228-1.9-1.595-3.127C.16 18.786 0 17.503 0 16.115c0-1.33.16-2.661.51-3.832.367-1.235.877-2.254 1.595-3.184A8.05 8.05 0 0 1 4.736 7c.957-.45 2.041-.714 3.27-.77.828-.049 1.546 0 2.104.096l.758.16c0 .056.055.056.095.056a.205.205 0 0 0 .16.056c.103 0 .215.064.215.064.303.08.662.241.957.401 1.036.506 1.913 1.18 2.631 2.11zm21.081 3.144c.311 1.187.51 2.47.51 3.849 0 1.387-.15 2.67-.502 3.849-.366 1.179-.877 2.261-1.594 3.127a7.784 7.784 0 0 1-2.671 2.101c-.718.313-1.491.57-2.313.674 0 0-1.538.248-3.332-.104-.622-.113-1.18-.257-1.699-.513-.022 0-.034-.013-.047-.026-.014-.014-.03-.03-.064-.03 0-.049-.048-.049-.048-.049s-.614-.305-.917-.513a8.525 8.525 0 0 1-1.754-1.588 10.22 10.22 0 0 1-1.595-3.127c-.359-1.179-.518-2.462-.518-3.85 0-1.33.16-2.661.51-3.832.367-1.235.877-2.254 1.595-3.184A8.049 8.049 0 0 1 24.199 7c.957-.45 2.041-.714 3.269-.77.821-.049 1.539 0 2.097.096l.765.16c0 .056.048.056.096.056.056.056.112.056.16.056.103 0 .215.064.215.064.303.08.662.241.957.401 1.036.506 1.913 1.18 2.63 2.11.718.93 1.229 1.996 1.596 3.175zm-12.031 1.162c-.16.818-.263 1.733-.32 2.615 0 .922.057 1.844.256 2.662.207.826.462 1.54.83 2.15a4.404 4.404 0 0 0 1.339 1.442c.518.353 1.124.514 1.794.514.677 0 1.283-.153 1.794-.513.518-.361.98-.818 1.34-1.428.358-.625.613-1.339.82-2.165.152-.818.256-1.74.256-2.662v-.305c0-.922-.104-1.748-.32-2.566-.207-.818-.462-1.484-.82-2.101-.36-.577-.766-1.026-1.276-1.38-.519-.36-1.085-.505-1.754-.505-.662 0-1.276.201-1.794.562-.51.353-.973.866-1.332 1.475-.359.618-.614 1.396-.821 2.198zm-19.431 0c-.2.818-.255 1.74-.255 2.663 0 .914.055 1.852.263 2.678.215.866.454 1.58.773 2.085a4.47 4.47 0 0 0 1.332 1.444c.518.352 1.132.513 1.81.513.661 0 1.283-.153 1.794-.513.51-.361.972-.818 1.323-1.428.359-.625.622-1.339.821-2.165.16-.818.256-1.74.256-2.662l.016-.305c0-.922-.112-1.748-.32-2.566-.207-.818-.462-1.484-.82-2.101a4.608 4.608 0 0 0-1.276-1.38c-.519-.36-1.085-.505-1.754-.505-.678 0-1.284.201-1.794.562-.519.353-.981.866-1.34 1.475-.359.618-.614 1.396-.813 2.198z"/></g></g></g></svg>